<svg width="146" height="35" viewBox="0 0 146 35" fill="none" xmlns="http://www.w3.org/2000/svg">
<path d="M136.527 10.83V26.348H140.327V14.363H145.002V10.83H136.527Z" fill="currentColor"/>
<path d="M92.4921 10.83H84.0181V26.348H87.8181V14.363H92.494L92.4921 10.83Z" fill="currentColor"/>
<path d="M79.3461 7.297H70.8721V10.83H75.5451V26.348H79.3451V10.83H84.0171V7.297H79.3461Z" fill="currentColor"/>
<path d="M114.402 13.834C114.86 13.8076 115.317 13.8993 115.73 14.1004C116.142 14.3014 116.496 14.6049 116.758 14.982C117.022 15.4082 117.174 15.8943 117.199 16.395H120.821C120.771 15.1928 120.36 14.0335 119.642 13.068C119.004 12.3001 118.202 11.6848 117.295 11.2671C116.388 10.8494 115.399 10.6399 114.401 10.654C113.39 10.6465 112.39 10.8584 111.47 11.2752C110.549 11.692 109.73 12.3037 109.069 13.068C107.887 14.6868 107.294 16.661 107.389 18.663C107.294 20.665 107.887 22.6392 109.069 24.258C109.73 25.0218 110.548 25.6332 111.468 26.0499C112.388 26.4667 113.387 26.6789 114.397 26.672C115.395 26.6861 116.384 26.4766 117.291 26.0589C118.198 25.6412 119 25.0259 119.638 24.258C120.356 23.2925 120.767 22.1332 120.817 20.931H117.199C117.173 21.432 117.022 21.9184 116.758 22.345C116.496 22.7217 116.142 23.025 115.73 23.2258C115.317 23.4266 114.86 23.5183 114.402 23.492C113.982 23.4958 113.566 23.4113 113.18 23.244C112.795 23.0768 112.449 22.8304 112.165 22.521C111.361 21.4047 110.994 20.0325 111.134 18.664C110.994 17.2861 111.36 15.9044 112.165 14.777C112.451 14.472 112.798 14.2304 113.183 14.068C113.569 13.9055 113.984 13.8258 114.402 13.834Z" fill="currentColor"/>
<path d="M128.504 10.654C127.6 10.6279 126.7 10.7868 125.86 11.1209C125.02 11.455 124.256 11.9573 123.617 12.597C122.106 14.2699 121.313 16.4696 121.408 18.722C121.364 19.8494 121.55 20.9741 121.955 22.0272C122.36 23.0803 122.976 24.0398 123.764 24.847C124.403 25.467 125.159 25.9531 125.988 26.2766C126.818 26.6002 127.703 26.7546 128.593 26.731C129.557 26.7739 130.519 26.6036 131.41 26.2321C132.3 25.8607 133.098 25.2972 133.746 24.582C134.418 23.7687 134.866 22.7943 135.046 21.755H131.513C131.39 22.2471 131.136 22.6965 130.777 23.055C130.477 23.3294 130.123 23.5369 129.737 23.6638C129.351 23.7907 128.942 23.834 128.538 23.791C127.688 23.7874 126.874 23.4485 126.272 22.848C125.891 22.4506 125.595 21.9795 125.403 21.4636C125.21 20.9477 125.125 20.3979 125.153 19.848H135.399C135.399 19.525 135.428 18.817 135.428 18.817C135.58 16.9435 135.115 15.0717 134.102 13.488C133.486 12.5792 132.649 11.8421 131.67 11.3463C130.691 10.8505 129.601 10.6122 128.504 10.654ZM125.119 17.161C125.101 16.2981 125.382 15.4556 125.914 14.776C126.22 14.3935 126.61 14.0878 127.055 13.8832C127.5 13.6787 127.986 13.581 128.475 13.598C128.903 13.5752 129.331 13.6421 129.732 13.7943C130.133 13.9465 130.497 14.1808 130.802 14.482C131.434 15.2292 131.769 16.1827 131.744 17.161H125.119Z" fill="currentColor"/>
<path d="M105.681 21.165H105.691V16.865C105.734 15.8167 105.582 14.7696 105.242 13.777C104.355 11.477 102.122 10.657 99.506 10.657C96.089 10.657 93.354 12.189 93.145 15.627H96.703C96.791 14.215 97.797 13.449 99.503 13.449C101.593 13.449 102.086 14.423 102.086 15.868V16.81L97.586 17.128C94.674 17.336 92.397 19.022 92.397 21.934C92.397 24.434 94.291 26.734 97.937 26.734C98.8436 26.7757 99.7461 26.5865 100.56 26.1843C101.373 25.782 102.072 25.1798 102.589 24.434V26.491H107.012V23.829H105.677L105.681 21.165ZM102.09 20.257C102.09 22.523 100.47 23.757 98.182 23.757C97.9122 23.7787 97.6409 23.7461 97.384 23.6609C97.1272 23.5757 96.8901 23.4397 96.6868 23.2611C96.4835 23.0824 96.3182 22.8648 96.2008 22.621C96.0833 22.3772 96.016 22.1123 96.003 21.842C96.0397 21.2888 96.2895 20.7714 96.6997 20.3984C97.1099 20.0255 97.6488 19.826 98.203 19.842L102.089 19.542L102.09 20.257Z" fill="currentColor"/>
<path d="M62.8111 0L33.3401 17.014L62.8111 34.027V29.565L41.0761 17.022L62.8111 4.473V0Z" fill="currentColor"/>
<path d="M33.339 0H29.469V34.027H33.339V0Z" fill="currentColor"/>
<path d="M0 4.473L21.73 17.022L0 29.565V34.027L29.469 17.013L0 0V4.473Z" fill="currentColor"/>
</svg>
